<svg width="17" height="17" viewBox="0 0 17 17" fill="none" xmlns="http://www.w3.org/2000/svg">
<g clip-path="url(#clip0_1_522)">
<path d="M8.5 0.708496V16.2918" stroke="#6CAC3D" style="stroke:#6CAC3D;stroke:color(display-p3 0.4235 0.6745 0.2392);stroke-opacity:1;" stroke-width="2" stroke-linecap="round" stroke-linejoin="round"/>
<path d="M12.0417 3.5415H6.72917C6.07165 3.5415 5.44107 3.8027 4.97613 4.26764C4.5112 4.73257 4.25 5.36315 4.25 6.02067C4.25 6.67819 4.5112 7.30877 4.97613 7.77371C5.44107 8.23864 6.07165 8.49984 6.72917 8.49984H10.2708C10.9283 8.49984 11.5589 8.76104 12.0239 9.22597C12.4888 9.6909 12.75 10.3215 12.75 10.979C12.75 11.6365 12.4888 12.2671 12.0239 12.732C11.5589 13.197 10.9283 13.4582 10.2708 13.4582H4.25" stroke="#6CAC3D" style="stroke:#6CAC3D;stroke:color(display-p3 0.4235 0.6745 0.2392);stroke-opacity:1;" stroke-width="2" stroke-linecap="round" stroke-linejoin="round"/>
</g>
<defs>
<clipPath id="clip0_1_522">
<rect width="17" height="17" fill="white" style="fill:white;fill-opacity:1;"/>
</clipPath>
</defs>
</svg>
