<svg width="17" height="17" viewBox="0 0 17 17" fill="none" xmlns="http://www.w3.org/2000/svg">
<path d="M9.91665 1.4165H4.24998C3.87426 1.4165 3.51392 1.56576 3.24824 1.83144C2.98257 2.09711 2.83331 2.45745 2.83331 2.83317V14.1665C2.83331 14.5422 2.98257 14.9026 3.24824 15.1682C3.51392 15.4339 3.87426 15.5832 4.24998 15.5832H12.75C13.1257 15.5832 13.486 15.4339 13.7517 15.1682C14.0174 14.9026 14.1666 14.5422 14.1666 14.1665V5.6665L9.91665 1.4165Z" stroke="#6CAC3D" style="stroke:#6CAC3D;stroke:color(display-p3 0.4235 0.6745 0.2392);stroke-opacity:1;" stroke-width="2" stroke-linecap="round" stroke-linejoin="round"/>
<path d="M9.91669 1.4165V5.6665H14.1667" stroke="#6CAC3D" style="stroke:#6CAC3D;stroke:color(display-p3 0.4235 0.6745 0.2392);stroke-opacity:1;" stroke-width="2" stroke-linecap="round" stroke-linejoin="round"/>
<path d="M11.3334 9.2085H5.66669" stroke="#6CAC3D" style="stroke:#6CAC3D;stroke:color(display-p3 0.4235 0.6745 0.2392);stroke-opacity:1;" stroke-width="2" stroke-linecap="round" stroke-linejoin="round"/>
<path d="M11.3334 12.0415H5.66669" stroke="#6CAC3D" style="stroke:#6CAC3D;stroke:color(display-p3 0.4235 0.6745 0.2392);stroke-opacity:1;" stroke-width="2" stroke-linecap="round" stroke-linejoin="round"/>
<path d="M7.08335 6.375H6.37502H5.66669" stroke="#6CAC3D" style="stroke:#6CAC3D;stroke:color(display-p3 0.4235 0.6745 0.2392);stroke-opacity:1;" stroke-width="2" stroke-linecap="round" stroke-linejoin="round"/>
</svg>
