<svg width="8" height="14" viewBox="0 0 8 14" fill="none" xmlns="http://www.w3.org/2000/svg">
<path fill-rule="evenodd" clip-rule="evenodd" d="M0.00705971 7.00883H2.40454V13.2227C2.40038 13.3258 2.4182 13.4286 2.45689 13.5246C2.49558 13.6207 2.5543 13.708 2.62935 13.7809C2.70441 13.8539 2.79418 13.911 2.89302 13.9486C2.99186 13.9862 3.09763 14.0035 3.2037 13.9994H4.80201C4.79003 13.9994 4.80201 7.00883 4.80201 7.00883H7.19949C7.14275 7.00883 8.03941 4.67864 7.99865 4.67864H4.80201V3.12517C4.78422 3.01926 4.7926 2.91077 4.82647 2.80863C4.86033 2.70649 4.91871 2.61362 4.99679 2.53774C5.07486 2.46186 5.17039 2.40511 5.27548 2.37219C5.38057 2.33927 5.4922 2.33114 5.60117 2.34844C5.73383 2.34844 7.24664 2.3531 7.19949 2.34844C7.33295 2.34844 7.32096 2.33679 7.99865 2.34844V0.499812C7.99865 -0.144099 7.33295 0.0182415 7.19949 0.0182415H4.80201C5.14086 0.0182415 3.68319 0.19223 3.2037 0.794974C2.74775 1.19813 2.46281 1.75202 2.40454 2.34844V4.67864H0.00705971C-0.0113209 4.65999 0.0126538 7.00883 0.00705971 7.00883Z" fill="white" style="fill:white;fill-opacity:1;"/>
</svg>
