<svg width="16" height="16" viewBox="0 0 16 16" fill="none" xmlns="http://www.w3.org/2000/svg">
<g clip-path="url(#clip0_16901_144)">
<path d="M15.2371 9.37168H14.9976V7.21496C14.9976 6.87352 14.8277 6.57121 14.5682 6.38752V6.09387C14.5682 5.6679 14.2216 5.32137 13.7957 5.32137H13.6169L14.3009 4.31762C14.5302 3.98118 14.443 3.5209 14.1066 3.29159L9.46497 0.128461C9.302 0.017367 9.10556 -0.023633 8.91168 0.0131483C8.7179 0.049867 8.55 0.159836 8.43893 0.322836L4.43265 6.20168H3.31781L3.58678 3.47887C3.58981 3.44818 3.60975 3.42159 3.63756 3.41112C3.98409 3.28046 4.2844 3.03646 4.48315 2.72409C4.49881 2.69949 4.52834 2.68543 4.5589 2.68852L6.3075 2.86127C6.43287 2.87343 6.5444 2.78212 6.55678 2.6568C6.56915 2.53149 6.47762 2.4199 6.35231 2.40752L4.60372 2.23477C4.40075 2.2149 4.20718 2.30843 4.09843 2.4793C3.95231 2.70899 3.7315 2.88837 3.47672 2.98443C3.28493 3.05674 3.15325 3.22899 3.133 3.43402L2.85962 6.20165H2.5689L2.99428 1.89527C3.00959 1.74027 3.14793 1.6264 3.30312 1.64193L6.83668 1.99099C6.962 2.00309 7.07359 1.91184 7.08597 1.78652C7.09834 1.66121 7.00681 1.54962 6.8815 1.53724L3.34793 1.18818C2.94281 1.14821 2.58053 1.44524 2.5405 1.85043L2.19762 5.32137H1.61372C1.18778 5.32137 0.841216 5.6679 0.841216 6.09387V6.29418C0.492747 6.45462 0.250122 6.80687 0.250122 7.21496V14.9867C0.250122 15.5454 0.704685 16 1.26347 16H13.9843C14.5431 16 14.9976 15.5454 14.9976 14.9867V12.83H15.2371C15.5197 12.83 15.7496 12.6001 15.7496 12.3175V9.88421C15.7496 9.60159 15.5197 9.37168 15.2371 9.37168ZM13.7957 5.77737C13.9702 5.77734 14.1122 5.91934 14.1122 6.0939V6.21005C14.0702 6.20474 14.0277 6.20171 13.9843 6.20171H13.017L13.3061 5.77737H13.7957ZM8.81572 0.579586C8.85822 0.517242 8.92243 0.47518 8.99656 0.461117C9.01428 0.457773 9.03206 0.456086 9.04972 0.456086C9.10587 0.456086 9.16075 0.472898 9.20818 0.505211L13.8498 3.66834C13.9785 3.75605 14.0118 3.93212 13.9242 4.0608L12.4652 6.20162H12.1151L12.8304 5.15202C12.9464 4.9818 12.9559 4.76518 12.8552 4.58665C12.7214 4.34946 12.6672 4.07018 12.7025 3.80021C12.7287 3.59937 12.6404 3.4033 12.4719 3.28849L10.0657 1.64874C9.89715 1.5339 9.68234 1.52337 9.50503 1.62127C9.26675 1.75284 8.98697 1.80449 8.71728 1.76674C8.51728 1.73868 8.31444 1.82899 8.20015 1.99665L5.33456 6.20165H4.98443L8.81572 0.579586ZM8.91612 4.45118C7.92328 4.45118 7.10828 5.22534 7.04187 6.20165H5.88628L8.57687 2.25343C8.5769 2.25343 8.5769 2.25343 8.5769 2.25343C8.59219 2.23096 8.61753 2.21759 8.64356 2.21759C8.64703 2.21759 8.6505 2.21784 8.65397 2.2183C9.02078 2.26962 9.40125 2.19943 9.72537 2.02046C9.75087 2.00634 9.78362 2.00837 9.80887 2.02555L12.2151 3.66534C12.2403 3.68252 12.2541 3.71227 12.2504 3.74115C12.2023 4.1083 12.2762 4.48812 12.4581 4.81068C12.4727 4.83659 12.4709 4.86977 12.4536 4.89524L11.5634 6.20162H10.7905C10.724 5.22534 9.90903 4.45118 8.91612 4.45118ZM10.3332 6.20168H7.49903C7.56434 5.47702 8.17478 4.90718 8.91612 4.90718C9.6575 4.90715 10.268 5.47702 10.3332 6.20168ZM1.29718 6.09387C1.29718 5.9193 1.43915 5.7773 1.61372 5.7773H2.15259L2.11068 6.20165H1.29718V6.09387ZM0.706091 7.21496C0.706091 6.90765 0.956122 6.65762 1.26347 6.65762H13.9843C14.2917 6.65762 14.5417 6.90765 14.5417 7.21496V7.84759H0.706091V7.21496ZM14.5417 14.9867C14.5417 15.294 14.2917 15.544 13.9843 15.544H1.26347C0.956122 15.544 0.706091 15.294 0.706091 14.9867V14.3541H1.93553C2.06147 14.3541 2.1635 14.252 2.1635 14.1261C2.1635 14.0002 2.06143 13.8981 1.93553 13.8981H0.706091V8.30355H14.5417V9.37168H12.374H12.3739C11.6909 9.37168 11.0993 9.7698 10.8185 10.3461C10.8176 10.348 10.8165 10.3499 10.8156 10.3518C10.8132 10.3567 10.8111 10.3618 10.8088 10.3668C10.7754 10.4378 10.7463 10.5113 10.7227 10.5872C10.7226 10.5874 10.7225 10.5876 10.7225 10.5878C10.672 10.75 10.6448 10.9223 10.6448 11.1008C10.6448 12.0543 11.4205 12.83 12.3739 12.83H12.3739H14.5416V13.8981H3.39534C3.2694 13.8981 3.16737 14.0002 3.16737 14.1261C3.16737 14.252 3.26943 14.3541 3.39534 14.3541H14.5417V14.9867ZM15.2937 12.3175C15.2937 12.3486 15.2683 12.374 15.2371 12.374H12.374C11.8913 12.374 11.4705 12.1041 11.2547 11.7072C11.2449 11.6892 11.2355 11.6709 11.2265 11.6523C11.2086 11.6152 11.1925 11.5771 11.1782 11.5381C11.1281 11.4017 11.1008 11.2544 11.1008 11.1008C11.1008 10.9473 11.1282 10.8 11.1782 10.6635C11.1925 10.6246 11.2087 10.5865 11.2265 10.5493C11.2355 10.5308 11.2449 10.5125 11.2547 10.4945C11.4705 10.0976 11.8913 9.82765 12.374 9.82765H15.2371C15.2682 9.82765 15.2937 9.85302 15.2937 9.88421V12.3175Z" fill="white" style="fill:white;fill-opacity:1;"/>
<path d="M12.4274 10.1758C11.9173 10.1758 11.5024 10.5907 11.5024 11.1008C11.5024 11.6108 11.9173 12.0257 12.4274 12.0257C12.9375 12.0257 13.3524 11.6108 13.3524 11.1008C13.3524 10.5907 12.9375 10.1758 12.4274 10.1758ZM12.4274 11.5698C12.1688 11.5698 11.9584 11.3594 11.9584 11.1008C11.9584 10.8422 12.1688 10.6317 12.4274 10.6317C12.686 10.6317 12.8964 10.8422 12.8964 11.1008C12.8964 11.3594 12.686 11.5698 12.4274 11.5698Z" fill="white" style="fill:white;fill-opacity:1;"/>
</g>
<defs>
<clipPath id="clip0_16901_144">
<rect width="16" height="16" fill="white" style="fill:white;fill-opacity:1;"/>
</clipPath>
</defs>
</svg>
