<svg width="18" height="18" viewBox="0 0 18 18" fill="none" xmlns="http://www.w3.org/2000/svg">
<path fill-rule="evenodd" clip-rule="evenodd" d="M13.0909 0H4.90909C3.63152 0.0747907 2.42586 0.61603 1.52093 1.52096C0.616007 2.42588 0.0747907 3.63152 0 4.90909V13.0909C0.0747907 14.3685 0.616007 15.5741 1.52093 16.479C2.42586 17.384 3.63152 17.9252 4.90909 18H13.0909C14.3685 17.9254 15.5743 17.3842 16.4793 16.4792C17.3842 15.5743 17.9254 14.3685 18 13.0909V4.90909C17.9254 3.63146 17.3842 2.42572 16.4793 1.52076C15.5743 0.615795 14.3685 0.0746156 13.0909 0ZM16.3636 13.0909C16.3238 13.9461 15.9662 14.7555 15.3609 15.3609C14.7555 15.9662 13.9461 16.3238 13.0909 16.3636H4.90909C4.05395 16.3238 3.24446 15.9662 2.63913 15.3609C2.03379 14.7555 1.6762 13.9461 1.63636 13.0909V4.90909C1.6762 4.05395 2.03379 3.24445 2.63913 2.63912C3.24446 2.03378 4.05395 1.6762 4.90909 1.63636H13.0909C13.9461 1.6762 14.7555 2.03378 15.3609 2.63912C15.9662 3.24445 16.3238 4.05395 16.3636 4.90909V13.0909ZM9 4.09091C8.02907 4.09091 7.07995 4.37881 6.27266 4.91823C5.46536 5.45765 4.83615 6.22437 4.46459 7.12139C4.09303 8.01841 3.99582 9.00544 4.18524 9.95771C4.37465 10.91 4.8422 11.7847 5.52875 12.4712C6.2153 13.1578 7.09001 13.6253 8.04228 13.8148C8.99455 14.0042 9.98161 13.907 10.8786 13.5354C11.7756 13.1638 12.5423 12.5347 13.0818 11.7274C13.6212 10.9201 13.9091 9.97093 13.9091 9C13.9091 7.69803 13.3919 6.4494 12.4713 5.52877C11.5506 4.60814 10.302 4.09091 9 4.09091ZM9.06627 12.2654C8.63098 12.2751 8.19813 12.1978 7.79314 12.0379C7.38814 11.8781 7.01917 11.639 6.70787 11.3345C6.39657 11.0301 6.14923 10.6666 5.98036 10.2653C5.81149 9.86396 5.72451 9.43295 5.72451 8.99755C5.72451 8.56215 5.81149 8.13115 5.98036 7.72983C6.14923 7.32851 6.39657 6.96497 6.70787 6.66056C7.01917 6.35615 7.38814 6.11698 7.79314 5.95714C8.19813 5.79729 8.63098 5.71998 9.06627 5.72972C9.93317 5.72983 10.7645 6.07431 11.3774 6.68738C11.9903 7.30044 12.3346 8.13186 12.3345 8.99875C12.3344 9.86565 11.9899 10.697 11.3768 11.3099C10.7638 11.9228 9.93235 12.2671 9.06546 12.267L9.06627 12.2654ZM13.5098 3.26539C13.226 3.26608 12.9513 3.36506 12.7323 3.54554C12.5133 3.72601 12.3636 3.97679 12.3087 4.2552C12.2538 4.53362 12.2971 4.82249 12.4312 5.07259C12.5653 5.32268 12.7819 5.51854 13.0442 5.6269C13.3065 5.73525 13.5982 5.74937 13.8697 5.66685C14.1412 5.58433 14.3757 5.41028 14.5334 5.17431C14.691 4.93834 14.762 4.65507 14.7342 4.37266C14.7065 4.09024 14.5817 3.82617 14.3812 3.62539C14.148 3.39787 13.8348 3.27118 13.509 3.27273L13.5098 3.26539Z" fill="white" style="fill:white;fill-opacity:1;"/>
</svg>
