<svg width="23" height="23" viewBox="0 0 23 23" fill="none" xmlns="http://www.w3.org/2000/svg">
<path d="M20.125 9.58325C20.125 16.2916 11.5 22.0416 11.5 22.0416C11.5 22.0416 2.875 16.2916 2.875 9.58325C2.875 7.29576 3.7837 5.10196 5.4012 3.48446C7.0187 1.86695 9.21251 0.958252 11.5 0.958252C13.7875 0.958252 15.9813 1.86695 17.5988 3.48446C19.2163 5.10196 20.125 7.29576 20.125 9.58325Z" stroke="#6CAC3D" style="stroke:#6CAC3D;stroke:color(display-p3 0.4235 0.6745 0.2392);stroke-opacity:1;" stroke-width="1.5" stroke-linecap="round" stroke-linejoin="round"/>
<path d="M11.5 12.4583C13.0878 12.4583 14.375 11.1711 14.375 9.58325C14.375 7.99543 13.0878 6.70825 11.5 6.70825C9.91218 6.70825 8.625 7.99543 8.625 9.58325C8.625 11.1711 9.91218 12.4583 11.5 12.4583Z" stroke="#6CAC3D" style="stroke:#6CAC3D;stroke:color(display-p3 0.4235 0.6745 0.2392);stroke-opacity:1;" stroke-width="1.5" stroke-linecap="round" stroke-linejoin="round"/>
</svg>
