<svg width="23" height="23" viewBox="0 0 23 23" fill="none" xmlns="http://www.w3.org/2000/svg">
<path d="M14.399 5.83333C15.3351 6.01596 16.1953 6.47375 16.8697 7.1481C17.544 7.82246 18.0018 8.68271 18.1844 9.61875L14.399 5.83333ZM14.399 2C16.3438 2.21604 18.1572 3.08692 19.5417 4.46963C20.9261 5.85235 21.7993 7.66472 22.0178 9.60917L14.399 2ZM21.0594 17.2567V20.1317C21.0605 20.3986 21.0059 20.6627 20.8989 20.9073C20.792 21.1518 20.6352 21.3714 20.4385 21.5518C20.2418 21.7322 20.0097 21.8696 19.7568 21.9551C19.504 22.0406 19.2361 22.0724 18.9703 22.0483C16.0213 21.7279 13.1887 20.7202 10.6999 19.1063C8.38436 17.6349 6.42123 15.6717 4.94986 13.3563C3.33026 10.8562 2.32234 8.0097 2.00778 5.0475C1.98383 4.78249 2.01533 4.5154 2.10026 4.26322C2.18519 4.01105 2.3217 3.77933 2.5011 3.5828C2.68049 3.38628 2.89884 3.22926 3.14224 3.12175C3.38565 3.01424 3.64877 2.95858 3.91486 2.95833H6.78986C7.25495 2.95376 7.70583 3.11845 8.05847 3.42172C8.4111 3.72499 8.64144 4.14614 8.70653 4.60667C8.82788 5.52673 9.05292 6.43011 9.37736 7.29958C9.5063 7.64259 9.5342 8.01538 9.45777 8.37376C9.38134 8.73214 9.20377 9.06111 8.94611 9.32167L7.72903 10.5387C9.09327 12.938 11.0798 14.9245 13.479 16.2887L14.6961 15.0717C14.9567 14.814 15.2856 14.6364 15.644 14.56C16.0024 14.4836 16.3752 14.5115 16.7182 14.6404C17.5877 14.9649 18.491 15.1899 19.4111 15.3113C19.8766 15.3769 20.3018 15.6114 20.6057 15.9701C20.9096 16.3288 21.0711 16.7867 21.0594 17.2567Z" stroke="#6CAC3D" style="stroke:#6CAC3D;stroke:color(display-p3 0.4235 0.6745 0.2392);stroke-opacity:1;" stroke-width="1.5" stroke-linecap="round" stroke-linejoin="round"/>
</svg>
