<svg width="18" height="18" viewBox="0 0 18 18" fill="none" xmlns="http://www.w3.org/2000/svg">
<path d="M9 18C13.9628 18 18 13.9628 18 9C18 4.03725 13.9628 0 9 0C4.03725 0 0 4.03725 0 9C0 13.9628 4.03725 18 9 18ZM9 1.125C13.3425 1.125 16.875 4.6575 16.875 9C16.875 13.3425 13.3425 16.875 9 16.875C4.6575 16.875 1.125 13.3425 1.125 9C1.125 4.6575 4.6575 1.125 9 1.125Z" fill="white" style="fill:white;fill-opacity:1;"/>
<path d="M5.92197 10.6158L7.09797 10.105L6.76797 10.4358C6.66222 10.5415 6.60297 10.6848 6.60297 10.8333V13.0345C6.60297 13.5385 7.21197 13.783 7.56297 13.432L8.74347 12.2515L11.316 13.5378C11.649 13.7043 12.0517 13.507 12.1207 13.135L13.5885 5.06427C13.6657 4.63002 13.2382 4.27902 12.8295 4.43952L3.29247 8.17227C2.86497 8.33877 2.80797 8.92377 3.19497 9.17052L5.39547 10.5745C5.55297 10.675 5.75172 10.6908 5.92197 10.6158ZM12.3015 5.85552L11.1487 12.1968L8.88372 11.065C8.66472 10.9555 8.40372 11.0013 8.23497 11.1708L7.72797 11.6778V11.068L9.98322 8.81277C10.4205 8.37552 9.92847 7.65402 9.36147 7.89927L5.74872 9.46677L4.73322 8.81877L12.3015 5.85552Z" fill="white" style="fill:white;fill-opacity:1;"/>
</svg>
