<svg width="23" height="14" viewBox="0 0 23 14" fill="none" xmlns="http://www.w3.org/2000/svg">
<path d="M18.7365 7.46966C18.3714 7.01374 18.4759 6.8109 18.7365 6.40336C18.7412 6.39871 21.7546 2.28054 22.0651 0.883928L22.067 0.882998C22.2213 0.374041 22.067 0 21.3209 0H18.8522C18.2237 0 17.934 0.321006 17.7787 0.68016C17.7787 0.68016 16.5218 3.65574 14.7436 5.58457C14.1697 6.14191 13.9044 6.32055 13.5911 6.32055C13.4368 6.32055 13.1969 6.14191 13.1969 5.63295V0.882998C13.1969 0.272622 13.021 0 12.5007 0H8.61887C8.22467 0 7.9904 0.284718 7.9904 0.549897C7.9904 1.12864 8.87948 1.26169 8.97168 2.88998V6.4229C8.97168 7.19704 8.82962 7.3394 8.51444 7.3394C7.67523 7.3394 5.63835 4.35172 4.43127 0.932312C4.1876 0.2689 3.94957 0.000930384 3.3164 0.000930384H0.84674C0.142064 0.000930384 0 0.321936 0 0.68109C0 1.31566 0.839213 4.47082 3.90253 8.63924C5.94411 11.4846 8.81927 13.0263 11.4348 13.0263C13.0069 13.0263 13.1988 12.6839 13.1988 12.0949C13.1988 9.37616 13.0567 9.11935 13.8442 9.11935C14.2092 9.11935 14.8377 9.298 16.3054 10.6704C17.9829 12.2978 18.2585 13.0263 19.1975 13.0263H21.6662C22.3699 13.0263 22.7265 12.6839 22.5214 12.0084C22.0519 10.5876 18.8795 7.66506 18.7365 7.46966Z" fill="white" style="fill:white;fill-opacity:1;"/>
</svg>
